<svg xmlns="http://www.w3.org/2000/svg" xmlns:xlink="http://www.w3.org/1999/xlink" width="320" zoomAndPan="magnify" viewBox="0 0 240 52.499999" height="70" preserveAspectRatio="xMidYMid meet" version="1.0"><defs><g/><clipPath id="a0295f6184"><path d="M 1.132812 0 L 238.867188 0 L 238.867188 52.003906 L 1.132812 52.003906 Z M 1.132812 0 " clip-rule="nonzero"/></clipPath><clipPath id="4e9e81bc8f"><path d="M 7 7 L 31.59375 7 L 31.59375 46.953125 L 7 46.953125 Z M 7 7 " clip-rule="nonzero"/></clipPath></defs><g clip-path="url(#a0295f6184)"><path fill="#ffffff" d="M 1.132812 0 L 238.867188 0 L 238.867188 52.003906 L 1.132812 52.003906 Z M 1.132812 0 " fill-opacity="1" fill-rule="nonzero"/><path fill="#ffffff" d="M 1.132812 0 L 238.867188 0 L 238.867188 52.003906 L 1.132812 52.003906 Z M 1.132812 0 " fill-opacity="1" fill-rule="nonzero"/></g><g clip-path="url(#4e9e81bc8f)"><path fill="#170c79" d="M 19.835938 15.667969 C 17.628906 24.445312 11.855469 29.277344 16.511719 38.644531 C 18.488281 39.300781 19.476562 25.8125 22.878906 29.070312 C 22.246094 32.507812 23.140625 36.9375 23.417969 40.28125 C 23.746094 44.269531 17.109375 43.1875 12.675781 46.925781 C 19.382812 44.578125 24.136719 44.730469 31.605469 45.722656 C 25.863281 44.152344 25.515625 42.292969 25.609375 41.769531 C 29.367188 20.566406 20.101562 18.109375 20.804688 15.765625 C 21.355469 13.9375 24.050781 12.292969 29.289062 10.917969 C 28.535156 10.046875 26.949219 9.582031 24.535156 9.523438 C 20.550781 5.375 12.800781 7.371094 11.808594 15.519531 C 15.613281 11.222656 20.90625 11.421875 19.835938 15.667969 Z M 20.511719 9.023438 C 20.929688 9.023438 21.269531 9.363281 21.269531 9.78125 C 21.269531 10.199219 20.929688 10.535156 20.511719 10.535156 C 20.09375 10.535156 19.757812 10.199219 19.757812 9.78125 C 19.757812 9.363281 20.097656 9.023438 20.511719 9.023438 Z M 10.246094 40.183594 C 7.144531 39.863281 6.332031 36.753906 7.8125 30.859375 C 8.359375 33.699219 9.148438 36.207031 10.175781 38.378906 C 10.402344 39.195312 10.425781 39.796875 10.246094 40.183594 Z M 10.246094 40.183594 " fill-opacity="1" fill-rule="evenodd"/></g><g fill="#170c79" fill-opacity="1"><g transform="translate(26.781548, 41.54474)"><g><path d="M 8.40625 -29.125 C 10.707031 -29.125 12.421875 -28.515625 13.546875 -27.296875 C 14.671875 -26.078125 15.234375 -24.285156 15.234375 -21.921875 L 15.234375 -18.140625 C 15.234375 -15.785156 14.671875 -13.992188 13.546875 -12.765625 C 12.421875 -11.546875 10.707031 -10.9375 8.40625 -10.9375 L 6.234375 -10.9375 L 6.234375 0 L 1.671875 0 L 1.671875 -29.125 Z M 6.234375 -24.96875 L 6.234375 -15.109375 L 8.40625 -15.109375 C 9.125 -15.109375 9.675781 -15.300781 10.0625 -15.6875 C 10.457031 -16.070312 10.65625 -16.789062 10.65625 -17.84375 L 10.65625 -22.21875 C 10.65625 -23.269531 10.457031 -23.988281 10.0625 -24.375 C 9.675781 -24.769531 9.125 -24.96875 8.40625 -24.96875 Z M 6.234375 -24.96875 "/></g></g></g><g fill="#170c79" fill-opacity="1"><g transform="translate(42.674187, 41.54474)"><g><path d="M 6.234375 -16.859375 L 12.53125 -16.859375 L 12.53125 -12.6875 L 6.234375 -12.6875 L 6.234375 -4.15625 L 14.140625 -4.15625 L 14.140625 0 L 1.671875 0 L 1.671875 -29.125 L 14.140625 -29.125 L 14.140625 -24.96875 L 6.234375 -24.96875 Z M 6.234375 -16.859375 "/></g></g></g><g fill="#170c79" fill-opacity="1"><g transform="translate(57.984376, 41.54474)"><g><path d="M 5.734375 -21.09375 L 5.734375 0 L 1.625 0 L 1.625 -29.125 L 7.359375 -29.125 L 12.0625 -11.6875 L 12.0625 -29.125 L 16.140625 -29.125 L 16.140625 0 L 11.4375 0 Z M 5.734375 -21.09375 "/></g></g></g><g fill="#170c79" fill-opacity="1"><g transform="translate(75.749189, 41.54474)"><g><path d="M 8.53125 -16.234375 L 14.9375 -16.234375 L 14.9375 -6.984375 C 14.9375 -4.628906 14.359375 -2.820312 13.203125 -1.5625 C 12.054688 -0.300781 10.359375 0.328125 8.109375 0.328125 C 5.867188 0.328125 4.171875 -0.300781 3.015625 -1.5625 C 1.867188 -2.820312 1.296875 -4.628906 1.296875 -6.984375 L 1.296875 -22.140625 C 1.296875 -24.492188 1.867188 -26.300781 3.015625 -27.5625 C 4.171875 -28.820312 5.867188 -29.453125 8.109375 -29.453125 C 10.359375 -29.453125 12.054688 -28.820312 13.203125 -27.5625 C 14.359375 -26.300781 14.9375 -24.492188 14.9375 -22.140625 L 14.9375 -19.3125 L 10.609375 -19.3125 L 10.609375 -22.421875 C 10.609375 -23.484375 10.394531 -24.226562 9.96875 -24.65625 C 9.539062 -25.082031 8.960938 -25.296875 8.234375 -25.296875 C 7.515625 -25.296875 6.9375 -25.082031 6.5 -24.65625 C 6.070312 -24.226562 5.859375 -23.484375 5.859375 -22.421875 L 5.859375 -6.703125 C 5.859375 -5.648438 6.070312 -4.914062 6.5 -4.5 C 6.9375 -4.082031 7.515625 -3.875 8.234375 -3.875 C 8.960938 -3.875 9.539062 -4.082031 9.96875 -4.5 C 10.394531 -4.914062 10.609375 -5.648438 10.609375 -6.703125 L 10.609375 -12.0625 L 8.53125 -12.0625 Z M 8.53125 -16.234375 "/></g></g></g><g fill="#170c79" fill-opacity="1"><g transform="translate(91.974656, 41.54474)"><g><path d="M 6.03125 -29.125 L 6.03125 -6.65625 C 6.03125 -5.601562 6.242188 -4.867188 6.671875 -4.453125 C 7.109375 -4.035156 7.6875 -3.828125 8.40625 -3.828125 C 9.125 -3.828125 9.695312 -4.035156 10.125 -4.453125 C 10.5625 -4.867188 10.78125 -5.601562 10.78125 -6.65625 L 10.78125 -29.125 L 15.109375 -29.125 L 15.109375 -6.953125 C 15.109375 -4.585938 14.53125 -2.773438 13.375 -1.515625 C 12.226562 -0.253906 10.53125 0.375 8.28125 0.375 C 6.03125 0.375 4.328125 -0.253906 3.171875 -1.515625 C 2.023438 -2.773438 1.453125 -4.585938 1.453125 -6.953125 L 1.453125 -29.125 Z M 6.03125 -29.125 "/></g></g></g><g fill="#170c79" fill-opacity="1"><g transform="translate(108.532952, 41.54474)"><g><path d="M 1.671875 -29.125 L 6.234375 -29.125 L 6.234375 0 L 1.671875 0 Z M 1.671875 -29.125 "/></g></g></g><g fill="#170c79" fill-opacity="1"><g transform="translate(116.437668, 41.54474)"><g><path d="M 5.734375 -21.09375 L 5.734375 0 L 1.625 0 L 1.625 -29.125 L 7.359375 -29.125 L 12.0625 -11.6875 L 12.0625 -29.125 L 16.140625 -29.125 L 16.140625 0 L 11.4375 0 Z M 5.734375 -21.09375 "/></g></g></g><g fill="#56b6c6" fill-opacity="1"><g transform="translate(131.447185, 41.307004)"><g><path d="M 6.234375 -16.1875 L 12.15625 -16.1875 L 12.15625 -12.03125 L 6.234375 -12.03125 L 6.234375 0 L 1.671875 0 L 1.671875 -29.125 L 13.765625 -29.125 L 13.765625 -24.96875 L 6.234375 -24.96875 Z M 6.234375 -16.1875 "/></g></g></g><g fill="#56b6c6" fill-opacity="1"><g transform="translate(145.218029, 41.307004)"><g><path d="M 16.484375 0 L 11.859375 0 L 11.0625 -5.28125 L 5.453125 -5.28125 L 4.65625 0 L 0.453125 0 L 5.125 -29.125 L 11.8125 -29.125 Z M 6.03125 -9.234375 L 10.4375 -9.234375 L 8.234375 -23.96875 Z M 6.03125 -9.234375 "/></g></g></g><g fill="#56b6c6" fill-opacity="1"><g transform="translate(162.150758, 41.307004)"><g><path d="M 1.078125 -22.140625 C 1.078125 -24.492188 1.640625 -26.300781 2.765625 -27.5625 C 3.890625 -28.820312 5.578125 -29.453125 7.828125 -29.453125 C 10.066406 -29.453125 11.75 -28.820312 12.875 -27.5625 C 14 -26.300781 14.5625 -24.492188 14.5625 -22.140625 L 14.5625 -21.21875 L 10.234375 -21.21875 L 10.234375 -22.421875 C 10.234375 -23.484375 10.03125 -24.226562 9.625 -24.65625 C 9.226562 -25.082031 8.671875 -25.296875 7.953125 -25.296875 C 7.222656 -25.296875 6.65625 -25.082031 6.25 -24.65625 C 5.851562 -24.226562 5.65625 -23.484375 5.65625 -22.421875 C 5.65625 -21.421875 5.875 -20.539062 6.3125 -19.78125 C 6.757812 -19.019531 7.316406 -18.300781 7.984375 -17.625 C 8.648438 -16.945312 9.363281 -16.265625 10.125 -15.578125 C 10.894531 -14.898438 11.609375 -14.160156 12.265625 -13.359375 C 12.929688 -12.554688 13.488281 -11.640625 13.9375 -10.609375 C 14.382812 -9.585938 14.609375 -8.378906 14.609375 -6.984375 C 14.609375 -4.628906 14.03125 -2.820312 12.875 -1.5625 C 11.726562 -0.300781 10.03125 0.328125 7.78125 0.328125 C 5.53125 0.328125 3.828125 -0.300781 2.671875 -1.5625 C 1.523438 -2.820312 0.953125 -4.628906 0.953125 -6.984375 L 0.953125 -8.78125 L 5.28125 -8.78125 L 5.28125 -6.703125 C 5.28125 -5.648438 5.492188 -4.914062 5.921875 -4.5 C 6.359375 -4.082031 6.9375 -3.875 7.65625 -3.875 C 8.375 -3.875 8.945312 -4.082031 9.375 -4.5 C 9.8125 -4.914062 10.03125 -5.648438 10.03125 -6.703125 C 10.03125 -7.703125 9.804688 -8.582031 9.359375 -9.34375 C 8.921875 -10.101562 8.367188 -10.820312 7.703125 -11.5 C 7.035156 -12.1875 6.316406 -12.867188 5.546875 -13.546875 C 4.785156 -14.222656 4.070312 -14.960938 3.40625 -15.765625 C 2.738281 -16.578125 2.179688 -17.492188 1.734375 -18.515625 C 1.296875 -19.546875 1.078125 -20.753906 1.078125 -22.140625 Z M 1.078125 -22.140625 "/></g></g><g transform="translate(177.710568, 41.307004)"><g><path d="M 6.234375 0 L 1.671875 0 L 1.671875 -29.125 L 6.234375 -29.125 L 6.234375 -16.640625 L 11.4375 -16.640625 L 11.4375 -29.125 L 16.109375 -29.125 L 16.109375 0 L 11.4375 0 L 11.4375 -12.484375 L 6.234375 -12.484375 Z M 6.234375 0 "/></g></g><g transform="translate(195.475378, 41.307004)"><g><path d="M 1.671875 -29.125 L 6.234375 -29.125 L 6.234375 0 L 1.671875 0 Z M 1.671875 -29.125 "/></g></g><g transform="translate(203.380095, 41.307004)"><g><path d="M 5.859375 -6.703125 C 5.859375 -5.648438 6.070312 -4.90625 6.5 -4.46875 C 6.9375 -4.039062 7.515625 -3.828125 8.234375 -3.828125 C 8.960938 -3.828125 9.539062 -4.039062 9.96875 -4.46875 C 10.394531 -4.90625 10.609375 -5.648438 10.609375 -6.703125 L 10.609375 -22.421875 C 10.609375 -23.484375 10.394531 -24.226562 9.96875 -24.65625 C 9.539062 -25.082031 8.960938 -25.296875 8.234375 -25.296875 C 7.515625 -25.296875 6.9375 -25.082031 6.5 -24.65625 C 6.070312 -24.226562 5.859375 -23.484375 5.859375 -22.421875 Z M 1.296875 -22.140625 C 1.296875 -24.492188 1.890625 -26.300781 3.078125 -27.5625 C 4.273438 -28.820312 5.992188 -29.453125 8.234375 -29.453125 C 10.484375 -29.453125 12.203125 -28.820312 13.390625 -27.5625 C 14.585938 -26.300781 15.1875 -24.492188 15.1875 -22.140625 L 15.1875 -6.984375 C 15.1875 -4.628906 14.585938 -2.820312 13.390625 -1.5625 C 12.203125 -0.300781 10.484375 0.328125 8.234375 0.328125 C 5.992188 0.328125 4.273438 -0.300781 3.078125 -1.5625 C 1.890625 -2.820312 1.296875 -4.628906 1.296875 -6.984375 Z M 1.296875 -22.140625 "/></g></g></g><g fill="#56b6c6" fill-opacity="1"><g transform="translate(219.855186, 41.307004)"><g><path d="M 5.734375 -21.09375 L 5.734375 0 L 1.625 0 L 1.625 -29.125 L 7.359375 -29.125 L 12.0625 -11.6875 L 12.0625 -29.125 L 16.140625 -29.125 L 16.140625 0 L 11.4375 0 Z M 5.734375 -21.09375 "/></g></g></g></svg>